<svg xmlns="http://www.w3.org/2000/svg" id="flag-icons-us" viewBox="0 0 640 480">
  <g fill-rule="evenodd">
    <path fill="#bd3d44" d="M0 0h912v34.3H0zm0 68.6h912v34.3H0zM0 137.2h912v34.3H0zm0 68.6h912v34.3H0zM0 274.5h912v34.3H0zm0 68.6h912v34.3H0zM0 411.8h912v34.3H0zM0 480.4h912v34.3H0z"/>
    <path fill="#fff" d="M0 34.3h912v34.3H0zm0 68.6h912v34.3H0zM0 171.5h912v34.3H0zM0 240.1h912v34.3H0zM0 308.7h912v34.3H0zM0 377.3h912v34.3H0zM0 445.9h912v34.3H0z"/>
    <path fill="#192f5d" d="M0 0h364.8v240.1H0z"/>
    <path fill="#fff" d="m30.4 11 7.2 22.1h23.2l-18.8 13.7 7.2 22.1-18.8-13.7-18.8 13.7 7.2-22.1L0 33.1h23.2z" transform="scale(2.2)"/>
  </g>
</svg>